<?xml version="1.0" encoding="UTF-8" standalone="no"?>
<!-- Created with Inkscape (http://www.inkscape.org/) -->

<svg
   width="86.837128"
   height="86.836197"
   viewBox="0 0 22.975656 22.97541"
   version="1.1"
   id="svg1"
   sodipodi:docname="music.svg"
   inkscape:version="1.3.2 (091e20ef0f, 2023-11-25)"
   xmlns:inkscape="http://www.inkscape.org/namespaces/inkscape"
   xmlns:sodipodi="http://sodipodi.sourceforge.net/DTD/sodipodi-0.dtd"
   xmlns="http://www.w3.org/2000/svg"
   xmlns:svg="http://www.w3.org/2000/svg">
  <sodipodi:namedview
     id="namedview1"
     pagecolor="#ffffff"
     bordercolor="#666666"
     borderopacity="1.0"
     inkscape:showpageshadow="2"
     inkscape:pageopacity="0.0"
     inkscape:pagecheckerboard="0"
     inkscape:deskcolor="#d1d1d1"
     inkscape:document-units="mm"
     inkscape:zoom="6.3222483"
     inkscape:cx="-17.557045"
     inkscape:cy="47.609645"
     inkscape:window-width="2560"
     inkscape:window-height="1316"
     inkscape:window-x="0"
     inkscape:window-y="0"
     inkscape:window-maximized="1"
     inkscape:current-layer="layer1" />
  <defs
     id="defs1" />
  <g
     inkscape:label="Layer 1"
     inkscape:groupmode="layer"
     id="layer1"
     transform="translate(-5.4455038,-5.4456283)">
    <path
       d="M 24.17384,9.425648 C 23.738803,9.0712105 23.173927,8.93328 22.62288,9.0476037 l -7.24253,1.5212823 c -0.857936,0.177387 -1.480814,0.942581 -1.480814,1.818726 v 6.946436 c -0.51058,-0.380067 -1.142563,-0.605343 -1.826483,-0.605343 -1.689902,0 -3.0648223,1.374921 -3.0648223,3.064822 0,1.690239 1.3749203,3.064822 3.0648223,3.064822 1.68518,0 3.057067,-1.367164 3.064485,-3.050994 0,-0.001 3.37e-4,-0.0025 3.37e-4,-0.0033 v -6.967717 l 8.48222,-1.804225 v 4.320697 c -0.510243,-0.380068 -1.142563,-0.605343 -1.826484,-0.605343 -1.689903,0 -3.064822,1.374921 -3.064822,3.064822 0,1.689902 1.374919,3.064823 3.064822,3.064823 0.331506,0 0.657615,-0.0526 0.969898,-0.156816 0.324423,-0.107917 0.499787,-0.458646 0.391533,-0.783068 -0.108253,-0.324422 -0.458981,-0.499787 -0.783068,-0.391534 -0.185818,0.06171 -0.380066,0.09308 -0.578363,0.09308 -1.006993,0 -1.826483,-0.819152 -1.826483,-1.826485 0,-1.006992 0.81949,-1.826482 1.826483,-1.826482 1.007331,0 1.826484,0.81949 1.826484,1.826482 v 0.0041 c 0,0.341961 0.277209,0.61917 0.619168,0.61917 0.341961,0 0.619171,-0.277209 0.619171,-0.61917 v -8.950305 0 0 c 0,-0.561165 -0.249558,-1.0862451 -0.684594,-1.4403448 z M 12.073053,23.62001 c -1.006993,0 -1.826483,-0.819152 -1.826483,-1.826483 0,-1.006994 0.81949,-1.826483 1.826483,-1.826483 1.006994,0 1.826483,0.819489 1.826483,1.826483 0,1.007331 -0.819489,1.826483 -1.826483,1.826483 z m 3.064822,-11.232398 c 0,-0.292048 0.207739,-0.547 0.495404,-0.606691 l 7.242194,-1.521283 c 0.04216,-0.0088 0.08431,-0.01282 0.126462,-0.01282 0.140967,0 0.278223,0.04789 0.389849,0.138942 0.145349,0.118034 0.228311,0.293061 0.228311,0.480228 v 0.900087 l -8.48222,1.804227 z"
       fill="url(#_lgradient_45)"
       id="path3"
       style="isolation:isolate;fill:#757779;fill-opacity:1;stroke-width:0.337238" />
  </g>
</svg>
